<?xml version="1.0" encoding="UTF-8" standalone="no"?>
<svg width="26px" height="24px" viewBox="0 0 26 24" version="1.1" xmlns="http://www.w3.org/2000/svg" xmlns:xlink="http://www.w3.org/1999/xlink" style="background: #FFFFFF;">
    <!-- Generator: Sketch 47 (45396) - http://www.bohemiancoding.com/sketch -->
    <title>Artboard</title>
    <desc>Created with Sketch.</desc>
    <defs>
        <path d="M15,10.4444444 C15,10.5648154 14.9567062,10.668981 14.8701172,10.7569444 L11.8076172,13.8680556 C11.7210282,13.956019 11.6184902,14 11.5,14 C11.3815098,14 11.2789718,13.956019 11.1923828,13.8680556 L8.12988281,10.7569444 C8.04329384,10.668981 8,10.5648154 8,10.4444444 C8,10.3240735 8.04329384,10.2199078 8.12988281,10.1319444 C8.21647179,10.043981 8.31900982,10 8.4375,10 L14.5625,10 C14.6809902,10 14.7835282,10.043981 14.8701172,10.1319444 C14.9567062,10.2199078 15,10.3240735 15,10.4444444 L15,10.4444444 Z" id="path-1"></path>
        <path d="M16,10.4444444 C16,10.5648154 15.9567062,10.668981 15.8701172,10.7569444 L12.8076172,13.8680556 C12.7210282,13.956019 12.6184902,14 12.5,14 C12.3815098,14 12.2789718,13.956019 12.1923828,13.8680556 L9.12988281,10.7569444 C9.04329384,10.668981 9,10.5648154 9,10.4444444 C9,10.3240735 9.04329384,10.2199078 9.12988281,10.1319444 C9.21647179,10.043981 9.31900982,10 9.4375,10 L15.5625,10 C15.6809902,10 15.7835282,10.043981 15.8701172,10.1319444 C15.9567062,10.2199078 16,10.3240735 16,10.4444444 L16,10.4444444 Z" id="path-3"></path>
    </defs>
    <g id="Style-" stroke="none" stroke-width="1" fill="none" fill-rule="evenodd">
        <g id="Artboard">
            <g id="Icon-/-Arrows-/-Caret---up" transform="translate(1.000000, 0.000000)">
                <mask id="mask-2" fill="white">
                    <use xlink:href="#path-1"></use>
                </mask>
            </g>
            <mask id="mask-4" fill="white">
                <use xlink:href="#path-3"></use>
            </mask>
            <use id="caret" fill="#007C89" transform="translate(12.500000, 12.000000) scale(1, -1) translate(-12.500000, -12.000000) " xlink:href="#path-3"></use>
        </g>
    </g>
</svg>