<?xml version="1.0" encoding="UTF-8" standalone="no"?>
<svg width="16px" height="16px" viewBox="0 0 16 16" version="1.1" xmlns="http://www.w3.org/2000/svg" xmlns:xlink="http://www.w3.org/1999/xlink">
    <!-- Generator: Sketch 42 (36781) - http://www.bohemiancoding.com/sketch -->
    <title>Icon / Clear X</title>
    <desc>Created with Sketch.</desc>
    <defs>
        <path d="M8,7.04945326 L5.14842165,4.19787491 C4.89209001,3.94154327 4.45989648,3.93492401 4.19741024,4.19741024 C3.933094,4.46172648 3.93513205,4.88567879 4.19787491,5.14842165 L7.04945326,8 L4.19787491,10.8515783 C3.93513205,11.1143212 3.933094,11.5382735 4.19741024,11.8025898 C4.45989648,12.065076 4.89209001,12.0584567 5.14842165,11.8021251 L8,8.95054674 L10.8515783,11.8021251 C11.10791,12.0584567 11.5401035,12.065076 11.8025898,11.8025898 C12.066906,11.5382735 12.064868,11.1143212 11.8021251,10.8515783 L8.95054674,8 L11.8021251,5.14842165 C12.064868,4.88567879 12.066906,4.46172648 11.8025898,4.19741024 C11.5401035,3.93492401 11.10791,3.94154327 10.8515783,4.19787491 L8,7.04945326 Z M8,16 C3.581722,16 0,12.418278 0,8 C0,3.581722 3.581722,0 8,0 C12.418278,0 16,3.581722 16,8 C16,12.418278 12.418278,16 8,16 Z" id="path-1"></path>
    </defs>
    <g id="Symbols" stroke="none" stroke-width="1" fill="none" fill-rule="evenodd">
        <g id="Form-/-Control-/-Text-/-Password-/-Show-Clear---Accredo" transform="translate(-61.000000, -16.000000)">
            <g id="Group-2">
                <g id="Icon-/-Clear-X" transform="translate(61.000000, 16.000000)">
                    <mask id="mask-2" fill="white">
                        <use xlink:href="#path-1"></use>
                    </mask>
                    <use id="Combined-Shape" fill="#979AA0" fill-rule="evenodd" xlink:href="#path-1"></use>
                    <g id="Color-/-Global-Grey---light" mask="url(#mask-2)" fill-rule="evenodd" fill="#B9BCC0">
                        <rect id="color" x="0" y="0" width="16" height="16"></rect>
                    </g>
                </g>
            </g>
        </g>
    </g>
</svg>