<?xml version="1.0" encoding="UTF-8"?>
<svg width="263px" height="152px" viewBox="0 0 263 152" version="1.1" xmlns="http://www.w3.org/2000/svg" xmlns:xlink="http://www.w3.org/1999/xlink">
    <!-- Generator: Sketch 40.3 (33839) - http://www.bohemiancoding.com/sketch -->
    <title>LOGO</title>
    <desc>Created with Sketch.</desc>
    <defs></defs>
    <g id="Page-1" stroke="none" stroke-width="1" fill="none" fill-rule="evenodd">
        <g id="LOGO" transform="translate(-3.000000, 0.000000)">
            <ellipse id="Oval" fill="#FFFFFF" cx="188.5" cy="76" rx="77.5" ry="76"></ellipse>
            <text id="LAW" font-family="Roboto-Medium, Roboto" font-size="51" font-weight="400" letter-spacing="1.49174976" fill="#FFFFFF">
                <tspan x="0" y="91">LAW</tspan>
            </text>
            <path d="M168.820312,89 L161.789062,89 L161.789062,74.375 L148.078125,74.375 L148.078125,89 L141.046875,89 L141.046875,54.875 L148.078125,54.875 L148.078125,68.703125 L161.789062,68.703125 L161.789062,54.875 L168.820312,54.875 L168.820312,89 Z M202.193062,54.875 L202.193062,77.3515625 C202.193062,81.0859562 201.025105,84.0390516 198.689156,86.2109375 C196.353207,88.3828234 193.161832,89.46875 189.114937,89.46875 C185.130542,89.46875 181.966511,88.414073 179.62275,86.3046875 C177.278988,84.195302 176.083687,81.2968934 176.036812,77.609375 L176.036812,54.875 L183.068062,54.875 L183.068062,77.3984375 C183.068062,79.6328237 183.603213,81.2617136 184.673531,82.2851562 C185.743849,83.3085989 187.224303,83.8203125 189.114937,83.8203125 C193.068082,83.8203125 195.075874,81.7422083 195.138375,77.5859375 L195.138375,54.875 L202.193062,54.875 Z M209.362687,89 L209.362687,54.875 L221.315812,54.875 C225.456458,54.875 228.597051,55.6679608 230.737687,57.2539062 C232.878323,58.8398517 233.948624,61.1640472 233.948624,64.2265625 C233.948624,65.8984459 233.518941,67.3710874 232.659562,68.6445312 C231.800183,69.9179751 230.604882,70.8515595 229.073624,71.4453125 C230.823633,71.8828147 232.202526,72.7656184 233.210343,74.09375 C234.218161,75.4218816 234.722062,77.0468654 234.722062,78.96875 C234.722062,82.2500164 233.675197,84.7343666 231.581437,86.421875 C229.487676,88.1093834 226.503331,88.9687498 222.628312,89 L209.362687,89 Z M216.393937,74.140625 L216.393937,83.3515625 L222.417374,83.3515625 C224.073633,83.3515625 225.366588,82.9570352 226.296281,82.1679688 C227.225973,81.3789023 227.690812,80.2890695 227.690812,78.8984375 C227.690812,75.7734219 226.073641,74.1875002 222.839249,74.140625 L216.393937,74.140625 Z M216.393937,69.171875 L221.597062,69.171875 C225.143955,69.1093747 226.917374,67.6953263 226.917374,64.9296875 C226.917374,63.3828048 226.46816,62.2695346 225.569718,61.5898438 C224.671276,60.9101529 223.253322,60.5703125 221.315812,60.5703125 L216.393937,60.5703125 L216.393937,69.171875 Z" id="HUB" fill="#555555"></path>
        </g>
    </g>
</svg>